<?xml version="1.0" standalone="no"?>
<!DOCTYPE svg PUBLIC "-//W3C//DTD SVG 20010904//EN"
 "http://www.w3.org/TR/2001/REC-SVG-20010904/DTD/svg10.dtd">
<svg version="1.0" xmlns="http://www.w3.org/2000/svg"
 width="576.000000pt" height="576.000000pt" viewBox="0 0 576.000000 576.000000"
 preserveAspectRatio="xMidYMid meet">
<metadata>
Created by potrace 1.14, written by Peter Selinger 2001-2017
</metadata>
<g transform="translate(0.000000,576.000000) scale(0.100000,-0.100000)"
fill="#000000" stroke="none">
<path d="M4179 5436 c-2 -2 -28 -7 -58 -11 -102 -13 -231 -46 -316 -81 -33
-14 -64 -26 -70 -28 -26 -6 -166 -86 -245 -140 -93 -63 -258 -226 -331 -326
-53 -74 -61 -86 -105 -165 -33 -59 -94 -205 -86 -206 4 0 41 0 82 1 41 0 104
0 140 -1 36 -1 71 -1 78 0 26 2 39 3 102 2 117 -1 115 -2 163 68 158 226 404
372 687 406 56 7 48 7 155 1 340 -18 650 -220 800 -521 77 -155 106 -296 100
-474 -5 -118 -6 -131 -29 -214 -94 -343 -373 -605 -731 -688 -65 -15 -263 -19
-340 -8 -67 10 -224 56 -241 70 -14 11 -368 -337 -358 -352 8 -14 138 -77 235
-115 78 -30 133 -46 208 -60 14 -3 27 -7 31 -9 3 -2 33 -7 65 -10 33 -4 74 -9
90 -12 40 -6 32 -6 176 0 69 3 136 8 150 11 13 3 35 8 49 10 45 7 158 38 230
61 84 28 254 116 325 167 175 129 320 281 418 443 42 69 117 236 141 315 50
165 61 249 60 450 0 137 -17 277 -40 350 -3 8 -5 16 -5 17 3 12 -71 195 -104
258 -48 94 -78 148 -85 155 -3 3 -25 32 -50 65 -63 85 -163 188 -250 257 -41
33 -83 66 -93 74 -9 8 -21 14 -26 14 -5 0 -16 6 -23 13 -40 40 -303 152 -403
172 -22 5 -42 9 -45 10 -3 1 -23 5 -45 10 -22 4 -49 10 -60 12 -25 6 -341 14
-346 9z"/>
<path d="M297 4164 c-1 -1 -30 -4 -63 -7 -34 -3 -77 -12 -95 -20 -41 -17 -92
-67 -115 -110 -24 -45 -27 -146 -6 -199 14 -34 196 -222 919 -945 l902 -902 1
-123 c1 -68 1 -127 1 -133 0 -23 0 -392 0 -410 0 -47 1 -221 0 -230 0 -5 0
-46 0 -90 0 -91 0 -110 -2 -127 -1 -7 0 -17 1 -23 1 -5 2 -17 1 -27 -1 -17
-69 -20 -411 -18 -147 1 -214 -1 -222 -6 -4 -3 -8 -1 -8 5 0 12 -94 -15 -129
-37 -68 -44 -105 -110 -107 -190 -2 -74 18 -130 62 -175 76 -78 -13 -72 1044
-74 l945 -2 48 24 c92 47 132 112 132 214 0 78 -19 123 -72 174 -33 33 -153
87 -153 69 0 -4 -39 -6 -87 -5 -49 2 -110 3 -138 3 -71 -1 -81 -1 -175 0 -47
1 -90 1 -95 0 -6 -1 -14 -1 -20 0 -5 1 -38 1 -72 1 l-63 0 -1 57 c-1 31 -1 61
0 66 1 6 2 57 1 115 -1 58 -1 113 -1 121 0 8 0 134 0 280 0 313 -1 270 1 350
1 36 1 70 0 75 -1 6 -2 34 -1 62 l1 53 904 904 c996 996 939 932 931 1054 -4
68 -22 108 -73 157 -49 47 -103 62 -236 64 -60 1 -113 4 -118 7 -4 3 -8 2 -8
-3 0 -4 -27 -8 -60 -8 -33 0 -60 2 -60 5 0 4 -107 4 -120 -1 -3 -1 -8 -1 -11
-1 -6 1 -52 2 -134 3 -22 0 -88 1 -148 2 -59 1 -107 0 -107 -3 0 -3 -27 -5
-60 -5 -33 0 -60 2 -60 5 0 6 -109 4 -116 -2 -2 -3 -24 -2 -49 2 -24 4 -50 3
-57 -1 -6 -4 -15 -6 -20 -3 -7 4 -226 6 -501 3 -60 0 -110 1 -113 3 -2 3 -26
2 -54 -2 -27 -4 -50 -2 -50 2 0 5 -4 7 -8 4 -5 -3 -40 -5 -78 -5 -38 -1 -85
-1 -104 -2 -19 -1 -39 -1 -45 -1 -13 1 -395 1 -415 1 -8 -1 -80 0 -160 0 -80
1 -194 1 -253 0 -60 0 -110 1 -113 3 -2 3 -26 2 -54 -2 -27 -4 -50 -2 -50 2 0
5 -4 7 -8 4 -5 -3 -40 -5 -78 -5 -38 -1 -85 -1 -104 -2 -19 -1 -39 -1 -45 -1
-35 3 -187 7 -188 6z"/>
</g>
</svg>
